TiTLE: The.Grandmasters.2013.HDTS.XviD-DEYA

LANGUAGES: Mandarin | Cantonese | Japanese

SUBTiTLES: CHiNESE THOUGHT-OUT
 
http://www.imdb.com/title/tt1462900/

PLOT: The story of martial-arts master Ip Man, the man who trained Bruce Lee

General
Complete name : C:UsersBakerDesktopThe.Grandmasters.2013.HDTS.XviD-DEYAThe.Grandmasters.2013.HDTS.XviD-DEYA.avi
Format : AVI
Format/Info : Audio Video Interleave
File size : 1.46 GiB
Duration : 2h 7mn
Overall bit rate : 1 646 Kbps

Video
ID : 0
Format : MPEG-4 Visual
Format profile : Advanced Simple@L5
Format settings, BVOP : 2
Format settings, QPel : No
Format settings, GMC : No warppoints
Format settings, Matrix : Default (H.263)
Muxing mode : Packed bitstream
Codec ID : XVID
Codec ID/Hint : XviD
Duration : 2h 7mn
Bit rate : 1 512 Kbps
Width : 720 pixels
Height : 304 pixels
Display aspect ratio : 2.35:1
Frame rate : 23.976 fps
Color space : YUV
Chroma subsampling : 4:2:0
Bit depth : 8 bits
Scan type : Progressive
Compression mode : Lossy
Bits/(Pixel*Frame) : 0.288
Stream size : 1.34 GiB (92%)
Writing library : XviD 64

Audio
ID : 1
Format : MPEG Audio
Format version : Version 1
Format profile : Layer 3
Codec ID : 55
Codec ID/Hint : MP3
Duration : 2h 7mn
Bit rate mode : Constant
Bit rate : 128 Kbps
Channel(s) : 2 channels
Sampling rate : 48.0 KHz
Compression mode : Lossy
Stream size : 117 MiB (8%)
Alignment : Aligned on interleaves
Interleave, duration : 167 ms (4.00 video frames)
Interleave, preload duration : 216 ms
Title : audio
Writing library : LAME3.98.4UUUUU┬¡

SOURCE: VERYPSP 720P

NOTES: HOPEFULLY SOME NiCE ENGLiSH DUB WiLL POP UP
OR EVEN JUST SOME ENGLiSH SUBTiTLES UNTiL THEN just
Enjoy! the fighting bits lol ;)

SCREENiES:
 
http://img546.imageshack.us/img546/5826/10430772.png
 
http://img5.imageshack.us/img5/6799/14549416.png
 
http://img822.imageshack.us/img822/5973/70178472.png
 
http://img29.imageshack.us/img29/3909/63032895.png
 
http://img13.imageshack.us/img13/977/24371197.png
 
http://img502.imageshack.us/img502/4784/35227606.png